<?xml version="1.0" standalone="no"?>
<!DOCTYPE svg PUBLIC "-//W3C//DTD SVG 20010904//EN"
 "http://www.w3.org/TR/2001/REC-SVG-20010904/DTD/svg10.dtd">
<svg version="1.0" xmlns="http://www.w3.org/2000/svg"
 width="500.000000pt" height="386.000000pt" viewBox="0 0 500.000000 386.000000"
 preserveAspectRatio="xMidYMid meet">

<g transform="translate(0.000000,386.000000) scale(0.100000,-0.100000)"
fill="#000000" stroke="none">
<path d="M2505 3460 c-146 -19 -298 -79 -400 -157 l-50 -39 -3 -93 c-4 -123
-2 -125 110 -119 48 3 85 2 83 -2 -3 -5 1 -10 7 -13 10 -3 10 -9 -1 -29 -12
-23 -18 -25 -55 -21 -34 5 -39 3 -28 -8 26 -28 6 -73 -23 -49 -9 7 -15 8 -20
0 -10 -16 -23 -12 -35 9 -7 15 -6 24 7 36 15 15 14 16 -13 13 l-29 -3 -3 -124
c-2 -87 1 -127 9 -132 24 -15 1 -39 -38 -39 l-38 0 0 147 0 148 -32 3 c-37 4
-40 -3 -17 -36 15 -22 14 -22 -25 -22 -46 0 -47 1 -25 35 16 25 16 25 -19 25
-32 0 -36 -4 -55 -47 -43 -102 -82 -272 -82 -360 0 -10 89 -13 435 -13 l435 0
0 450 c0 422 -1 450 -17 449 -10 -1 -45 -5 -78 -9z"/>
<path d="M3110 3285 c0 -8 7 -15 16 -15 14 0 14 3 4 15 -7 8 -14 15 -16 15 -2
0 -4 -7 -4 -15z"/>
<path d="M3010 3261 c0 -6 -6 -11 -14 -11 -20 0 -29 -43 -11 -56 8 -6 15 -16
15 -23 0 -6 6 -20 13 -31 10 -17 9 -22 -3 -30 -13 -8 -12 -10 3 -10 18 0 24
-34 7 -45 -16 -10 -11 -28 6 -21 13 5 15 2 11 -14 -3 -11 -1 -20 5 -20 15 0
-2 -21 -26 -30 -25 -9 -35 -60 -11 -60 8 0 15 -4 15 -10 0 -5 5 -10 10 -10 6
0 10 9 10 20 0 11 4 20 10 20 5 0 18 10 30 22 20 21 21 22 49 5 16 -9 45 -17
65 -17 20 0 36 -5 36 -11 0 -8 -15 -10 -46 -5 -53 7 -107 -14 -98 -39 4 -8 0
-23 -7 -32 -12 -15 -12 -16 8 -11 17 5 22 1 25 -24 5 -32 -17 -52 -32 -28 -6
10 -13 9 -32 -6 l-25 -18 24 -24 24 -24 36 18 c47 25 65 53 57 91 -5 26 -2 34
20 48 33 22 42 14 21 -18 -16 -25 -12 -82 5 -72 5 3 15 -4 23 -16 13 -18 16
-19 24 -5 5 8 20 17 33 18 19 2 26 -2 28 -20 3 -20 0 -22 -21 -17 -22 6 -25 4
-23 -20 1 -23 4 -26 29 -21 15 3 27 1 27 -4 0 -20 19 -9 32 18 12 24 11 32
-10 74 -21 42 -27 47 -48 42 -15 -4 -24 -2 -24 5 0 17 30 62 62 93 37 35 35
63 -8 128 -41 63 -41 58 0 -24 31 -62 28 -88 -10 -94 -47 -6 -119 103 -91 137
7 8 11 22 9 33 -2 11 5 21 17 26 19 7 16 13 -39 67 -42 41 -60 54 -60 42 0
-10 4 -16 9 -12 5 3 12 1 16 -5 3 -6 -2 -13 -11 -17 -10 -4 -19 -2 -22 5 -6
19 -22 14 -22 -8 0 -11 -7 -20 -15 -20 -8 0 -15 5 -15 11 0 5 -5 7 -10 4 -6
-4 -8 -15 -5 -26 4 -13 2 -19 -8 -19 -23 0 -47 34 -47 68 0 17 -4 34 -10 37
-5 3 -10 1 -10 -4z"/>
<path d="M1937 3145 c-76 -95 -76 -95 -19 -95 64 0 74 12 70 92 l-3 63 -48
-60z"/>
<path d="M1722 3161 c-23 -14 -1343 -1335 -1353 -1353 -13 -24 11 -44 79 -63
80 -24 652 -202 932 -291 355 -113 371 -119 400 -159 27 -37 68 -56 166 -79
54 -12 66 -12 93 2 30 14 36 13 104 -13 110 -43 698 -288 1016 -424 156 -66
296 -121 311 -121 38 0 51 13 181 180 62 80 306 393 542 695 237 303 434 560
439 571 15 33 -4 58 -67 88 -31 14 -58 26 -60 26 -3 0 5 -20 17 -44 l21 -44
-114 -147 c-63 -81 -139 -179 -170 -218 -30 -40 -80 -104 -110 -143 -30 -39
-144 -186 -254 -328 -110 -141 -209 -270 -220 -286 -49 -69 -210 -270 -217
-270 -5 0 -79 34 -166 76 -613 297 -844 391 -1129 460 -104 25 -113 29 -113
50 0 35 -54 90 -100 102 -45 11 -105 1 -128 -22 -13 -13 -21 -12 -71 11 -270
122 -788 288 -1181 378 -41 10 -80 20 -87 24 -7 4 68 87 185 207 200 203 705
721 952 974 86 88 145 142 162 146 16 3 25 10 22 15 -7 11 -65 11 -82 0z"/>
<path d="M2111 2954 c0 -11 3 -14 6 -6 3 7 2 16 -1 19 -3 4 -6 -2 -5 -13z"/>
<path d="M2145 2961 c-3 -5 -1 -12 5 -16 5 -3 10 1 10 9 0 18 -6 21 -15 7z"/>
<path d="M2610 2122 l0 -449 58 4 c145 10 327 77 444 163 l48 35 -3 105 -2
105 -32 3 c-38 4 -39 1 -17 -33 l16 -25 -41 2 c-22 1 -41 3 -41 5 0 2 8 16 17
30 l17 26 -52 -6 c-40 -5 -52 -3 -52 8 0 7 -5 15 -11 17 -9 3 -8 9 1 24 11 18
20 20 94 16 108 -6 109 -4 104 138 -2 80 0 110 9 110 6 0 14 6 17 13 3 9 9 7
19 -5 8 -10 16 -16 18 -14 2 3 3 -45 1 -105 -3 -77 -1 -114 8 -124 9 -11 32
-15 80 -15 l68 0 20 48 c43 101 82 271 82 359 0 10 -89 13 -435 13 l-435 0 0
-448z"/>
<path d="M2030 2416 c0 -8 7 -16 15 -20 8 -3 15 -13 15 -21 0 -15 -1 -15 -16
0 -9 9 -23 14 -32 10 -8 -3 -21 0 -30 7 -13 11 -14 10 -10 -2 3 -9 16 -14 32
-13 23 2 25 -1 20 -23 -5 -19 -3 -23 10 -18 9 3 16 1 16 -5 0 -16 -33 -27 -38
-13 -6 19 -22 14 -22 -8 0 -22 -16 -27 -22 -8 -2 6 -10 8 -16 4 -7 -4 -10 -16
-7 -27 9 -27 -20 -25 -39 3 -9 12 -16 35 -16 50 0 15 -4 30 -10 33 -5 3 -10 1
-10 -4 0 -6 -6 -11 -14 -11 -19 0 -29 -42 -13 -55 6 -6 20 -25 29 -43 16 -30
16 -32 0 -42 -16 -9 -16 -9 1 -10 20 0 22 -22 6 -52 -10 -18 -9 -20 6 -14 14
5 16 2 12 -13 -3 -11 0 -22 7 -25 7 -3 6 -9 -5 -18 -14 -11 -15 -17 -4 -31 17
-23 31 -21 49 5 15 22 17 22 45 5 16 -9 45 -17 65 -17 20 0 36 -4 36 -10 0 -5
-23 -9 -52 -7 -36 1 -60 -3 -77 -15 l-23 -17 46 -48 47 -48 -6 32 c-5 27 -2
34 20 49 32 21 39 15 22 -20 -14 -27 -11 -80 3 -71 5 3 15 -4 23 -16 13 -17
17 -18 24 -6 14 25 50 30 62 9 13 -25 4 -33 -25 -26 -27 7 -29 2 -13 -27 7
-14 16 -18 30 -14 11 4 19 2 19 -4 0 -6 4 -11 9 -11 14 0 41 59 30 66 -5 3 -9
14 -9 25 0 10 -4 19 -9 19 -5 0 -11 9 -14 20 -4 17 -11 19 -31 14 -16 -4 -26
-2 -26 5 0 18 35 69 63 91 35 28 35 59 -3 139 -29 62 -33 91 -10 91 5 0 10 -9
10 -21 0 -11 10 -33 21 -47 l21 -27 -7 45 c-9 56 -28 79 -53 64 -29 -18 -26
-61 10 -130 26 -51 31 -67 22 -81 -23 -37 -66 -22 -107 37 -19 27 -23 80 -6
80 6 0 9 7 5 15 -8 21 3 45 20 45 8 0 14 10 14 24 0 14 5 28 10 31 6 3 10 15
10 26 0 10 4 19 10 19 5 0 7 7 4 15 -4 8 -1 15 5 15 6 0 11 5 11 10 0 6 -6 10
-13 10 -8 0 -22 9 -32 20 -22 25 -115 29 -115 6z"/>
<path d="M3227 2083 c-11 -10 -8 -145 2 -138 19 11 72 85 58 80 -22 -9 -40 20
-27 44 9 18 8 21 -8 21 -10 0 -22 -3 -25 -7z"/>
<path d="M3284 2075 c-3 -8 -4 -20 -2 -27 3 -7 7 -1 10 15 6 29 1 36 -8 12z"/>
<path d="M3313 2071 c0 -11 5 -18 9 -15 4 3 5 11 1 19 -7 21 -12 19 -10 -4z"/>
</g>
</svg>
